<?xml version="1.0" encoding="UTF-8"?>
<svg height="128px" viewBox="0 0 128 128" width="128px" xmlns="http://www.w3.org/2000/svg" xmlns:xlink="http://www.w3.org/1999/xlink">
    <linearGradient id="a" gradientTransform="matrix(0.232143 0 0 0.328947 -8.50701 263.853363)" gradientUnits="userSpaceOnUse" x1="88.595886" x2="536.595886" y1="-449.394012" y2="-449.394012">
        <stop offset="0" stop-color="#77767b"/>
        <stop offset="0.0384615" stop-color="#c0bfbc"/>
        <stop offset="0.0768555" stop-color="#9a9996"/>
        <stop offset="0.923077" stop-color="#9a9996"/>
        <stop offset="0.961538" stop-color="#c0bfbc"/>
        <stop offset="1" stop-color="#77767b"/>
    </linearGradient>
    <linearGradient id="b" gradientUnits="userSpaceOnUse" x1="11.996098" x2="116.058601" y1="234.03006" y2="234.03006">
        <stop offset="0.184136" stop-color="#fef57f"/>
        <stop offset="1" stop-color="#501aae" stop-opacity="0.929412"/>
    </linearGradient>
    <clipPath id="c">
        <path d="m 66.300781 71.050781 h 28 v 26 h -28 z m 0 0"/>
    </clipPath>
    <clipPath id="d">
        <path d="m 80.300781 69.050781 h -32 c -7.730469 0 -14 6.269531 -14 14 s 6.269531 14 14 14 h 32 c 7.730469 0 14 -6.269531 14 -14 s -6.269531 -14 -14 -14 z m 0 0"/>
    </clipPath>
    <path d="m 20.058594 16.027344 h 88 c 4.417968 0 8 3.582031 8 8 v 84 c 0 4.417968 -3.582032 8 -8 8 h -88 c -4.417969 0 -8 -3.582032 -8 -8 v -84 c 0 -4.417969 3.582031 -8 8 -8 z m 0 0" fill="url(#a)"/>
    <path d="m 20.058594 12.027344 h 88 c 4.417968 0 8 3.582031 8 8 v 84 c 0 4.417968 -3.582032 8 -8 8 h -88 c -4.417969 0 -8 -3.582032 -8 -8 v -84 c 0 -4.417969 3.582031 -8 8 -8 z m 0 0" fill="#deddda"/>
    <path d="m 20.421875 184.027344 h 87.210937 c 4.378907 0 7.929688 3.582031 7.929688 8 v 84.003906 c 0 4.417969 -3.550781 8 -7.929688 8 h -87.210937 c -4.378906 0 -7.929687 -3.582031 -7.929687 -8 v -84.003906 c 0 -4.417969 3.550781 -8 7.929687 -8 z m 0 0" fill="url(#b)" stroke="#000000" stroke-width="0.995527" transform="matrix(1 0 0 1 0 -172)"/>
    <path d="m 48.300781 67.050781 c -7.757812 0 -14 6.242188 -14 14 c 0 0.335938 0.027344 0.667969 0.050781 1 c 0.511719 -7.285156 6.53125 -13 13.949219 -13 h 32 c 7.347657 -0.015625 13.449219 5.667969 13.949219 13 c 0.023438 -0.332031 0.050781 -0.664062 0.050781 -1 c 0 -7.757812 -6.242187 -14 -14 -14 z m 0 0" fill="#1a5fb4"/>
    <path d="m 80.300781 69.050781 h -32 c -7.730469 0 -14 6.269531 -14 14 s 6.269531 14 14 14 h 32 c 7.730469 0 14 -6.269531 14 -14 s -6.269531 -14 -14 -14 z m 0 0" fill="#3584e4"/>
    <g clip-path="url(#c)">
        <g clip-path="url(#d)">
            <path d="m 66.300781 85.050781 c 0 7.730469 6.269531 14 14 14 s 14 -6.269531 14 -14 s -6.269531 -14 -14 -14 s -14 6.269531 -14 14 z m 0 0" fill="#deddda"/>
        </g>
    </g>
    <path d="m 94.300781 79.050781 h -28 v 6 h 28 z m 0 0" fill="#deddda"/>
    <path d="m 66.300781 79.050781 c 0 7.730469 6.269531 14 14 14 s 14 -6.269531 14 -14 s -6.269531 -14 -14 -14 s -14 6.269531 -14 14 z m 0 0" fill="#ffffff"/>
    <path d="m 113.621094 14.230469 c -97.226563 96.871093 -97.050782 96.871093 -97.050782 96.871093 z m 0 0" fill="#d4d4d4"/>
</svg>
